<?xml version="1.0" encoding="utf-8"?>
<!-- Generator: Adobe Illustrator 23.1.1, SVG Export Plug-In . SVG Version: 6.00 Build 0)  -->
<svg version="1.1" id="Layer_1" xmlns="http://www.w3.org/2000/svg" xmlns:xlink="http://www.w3.org/1999/xlink" x="0px" y="0px"
	 viewBox="0 0 70 70" style="enable-background:new 0 0 70 70;" xml:space="preserve">
<style type="text/css">
	.st0{fill-rule:evenodd;clip-rule:evenodd;fill:#0025FF;}
</style>
<path class="st0" d="M25.4,24.1c-2.7,0.7-7.7,1.3-8.8,5.4c-1,3.7-5.5,5.3-9.1,3.9C3.6,32,1.7,28,3,24.2c1.2-3.8,5.2-6,9.1-4.6
	c1.9,0.7,2.8,0.2,4-1c7.2-7.1,15.5-9.3,25.2-6.1c5.5,1.8,9,5.9,11.6,10.6c2.6,4.9,4.6,10.1,7,15.7c2.8-0.1,3.8,2.3,4.2,5.4
	c0.3,2.3,1,4.5,1.4,6.8c0.5,2.6-0.6,4.1-3.1,4.6c-11.6,2.3-23.2,2.8-34.9,1.8c-4-0.4-7.9-1.1-11.9-1.7c-3-0.5-3.9-1.9-3.3-4.9
	c0.5-2.8,1-5.6,1.6-8.4c0.2-1,0.8-2.5,1.5-2.6c3.1-0.6,3.4-3.3,4.5-5.4c1.4-2.8,2.7-5.4,4.1-8.2C25.1,24.5,25.6,24.2,25.4,24.1z
	 M14.6,52.6c16.3,3.2,32.3,3.3,48.7,0c-0.7-3.9-1.4-7.4-2.1-10.9C55.8,42.3,44,43.1,39,43C30,42.8,28,42.2,19.1,41.8
	c-0.8,0-2.3,0.6-2.5,1.3C15.7,46,15.2,49.1,14.6,52.6z M10.2,21.8c-2.6-0.1-4.7,1.9-4.9,4.4c-0.2,2.5,2.1,5,4.7,5
	c2.4,0,4.6-2.1,4.6-4.6C14.6,24,12.7,21.9,10.2,21.8z"/>
</svg>
